# xmcd
#
# Track frame offsets: 
#        150
#        9105
#        21428
#        29754
#        50473
#        64228
#        80643
#        100006
#        109684
#        121805
#        132716
#        144980
#        154458
#        163615
#        176055
#        193110
#        202891
#        213416
#        234369
#        248627
#        267796
#        304430
#
# Disc length: 4369 seconds
#
# Revision: 1
# Processed by: cddbd v1.5.2PL0 Copyright (c) Steve Scherf et al.
# Submitted via: ExactAudioCopy v1.0b3
#
DISCID=38110f16
DTITLE=Jacek Kaczmarski - Złota kolekcja
DYEAR=2005
DGENRE=Ballad
TTITLE0=O Krok
TTITLE1=Obława
TTITLE2=Nie lubię
TTITLE3=Między nami
TTITLE4=Piosenka napisana mimochodem
TTITLE5=Zródło (Wąwóz)
TTITLE6=Nasza klasa
TTITLE7=Postmodernizm
TTITLE8=Wojna Postu z Karnawałem
TTITLE9=Przyczynek do legendy o sw. Jerzym
TTITLE10=Lekcja historii klasycznej
TTITLE11=Ballada Wrzesniowa
TTITLE12=Sen Katarzyny II
TTITLE13=Krajobraz po uczcie
TTITLE14=Zesłanie studentów (Malczewski)
TTITLE15=Modlitwa
TTITLE16=Zegar
TTITLE17=Bajka o Głupim Jasiu
TTITLE18=Wędrówki z cieniem
TTITLE19=Pożegnanie Okudżawy
TTITLE20=Epitafium dla W.Wysockiego
TTITLE21=Mury
EXTD=
EXTT0=
EXTT1=
EXTT2=
EXTT3=
EXTT4=
EXTT5=
EXTT6=
EXTT7=
EXTT8=
EXTT9=
EXTT10=
EXTT11=
EXTT12=
EXTT13=
EXTT14=
EXTT15=
EXTT16=
EXTT17=
EXTT18=
EXTT19=
EXTT20=
EXTT21=
PLAYORDER=
